<svg width="70" height="70" viewBox="0 0 70 70" fill="none" xmlns="http://www.w3.org/2000/svg">
<g clip-path="url(#clip0_63_5)">
<path d="M35 70C54.33 70 70 54.33 70 35C70 15.67 54.33 0 35 0C15.67 0 0 15.67 0 35C0 54.33 15.67 70 35 70Z" fill="#010201"/>
<path d="M35 16.9347C40.8852 16.9347 41.58 16.9555 43.9029 17.0644C46.0496 17.1629 47.2163 17.5207 47.9941 17.8214C49.0207 18.2207 49.757 18.6977 50.5296 19.4703C51.3022 20.2429 51.7792 20.974 52.1785 22.0059C52.4792 22.7836 52.837 23.9503 52.9355 26.097C53.0392 28.4199 53.0652 29.1199 53.0652 34.9999C53.0652 40.8799 53.0444 41.5799 52.9355 43.9029C52.837 46.0496 52.4792 47.2162 52.1785 47.994C51.7792 49.0207 51.3022 49.757 50.5296 50.5296C49.757 51.3021 49.0259 51.7792 47.9941 52.1784C47.2163 52.4792 46.0496 52.837 43.9029 52.9355C41.58 53.0392 40.8852 53.0651 35 53.0651C29.1148 53.0651 28.42 53.0444 26.097 52.9355C23.9504 52.837 22.7837 52.4792 22.0059 52.1784C20.9792 51.7792 20.2429 51.3021 19.4704 50.5296C18.6978 49.757 18.2207 49.0259 17.8215 47.994C17.5207 47.2162 17.1629 46.0496 17.0644 43.9029C16.9607 41.5799 16.9348 40.8799 16.9348 34.9999C16.9348 29.1199 16.9555 28.4199 17.0644 26.097C17.1629 23.9503 17.5207 22.7836 17.8215 22.0059C18.2207 20.9792 18.6978 20.2429 19.4704 19.4703C20.2429 18.6977 20.9741 18.2207 22.0059 17.8214C22.7837 17.5207 23.9504 17.1629 26.097 17.0644C28.42 16.9607 29.12 16.9347 35 16.9347ZM35 12.9629C29.0163 12.9629 28.2644 12.9888 25.9155 13.0977C23.5718 13.2066 21.9696 13.5747 20.5644 14.1244C19.1178 14.6896 17.8889 15.4414 16.66 16.6651C15.4363 17.8888 14.6792 19.1177 14.1192 20.5696C13.5748 21.9696 13.2015 23.5718 13.0926 25.9207C12.9837 28.2696 12.9578 29.0214 12.9578 35.0051C12.9578 40.9888 12.9837 41.7407 13.0926 44.0896C13.2015 46.4333 13.5696 48.0355 14.1192 49.4407C14.6844 50.8873 15.4363 52.1162 16.66 53.3451C17.8837 54.5688 19.1126 55.3259 20.5644 55.8859C21.9644 56.4303 23.5667 56.8036 25.9155 56.9125C28.2644 57.0214 29.0163 57.0473 35 57.0473C40.9837 57.0473 41.7355 57.0214 44.0844 56.9125C46.4281 56.8036 48.0304 56.4355 49.4355 55.8859C50.8822 55.3207 52.1111 54.5688 53.34 53.3451C54.5637 52.1214 55.3207 50.8925 55.8807 49.4407C56.4252 48.0407 56.7985 46.4384 56.9074 44.0896C57.0163 41.7407 57.0422 40.9888 57.0422 35.0051C57.0422 29.0214 57.0163 28.2696 56.9074 25.9207C56.7985 23.577 56.4303 21.9747 55.8807 20.5696C55.3155 19.1229 54.5637 17.894 53.34 16.6651C52.1163 15.4414 50.8874 14.6844 49.4355 14.1244C48.0355 13.5799 46.4333 13.2066 44.0844 13.0977C41.7355 12.9888 40.9837 12.9629 35 12.9629V12.9629Z" fill="white"/>
<path d="M35.0001 23.686C28.752 23.686 23.686 28.752 23.686 35.0001C23.686 41.2483 28.752 46.3142 35.0001 46.3142C41.2483 46.3142 46.3142 41.2483 46.3142 35.0001C46.3142 28.752 41.2483 23.686 35.0001 23.686ZM35.0001 42.3475C30.9453 42.3475 27.6527 39.0601 27.6527 35.0001C27.6527 30.9401 30.9401 27.6527 35.0001 27.6527C39.0601 27.6527 42.3475 30.9401 42.3475 35.0001C42.3475 39.0601 39.0601 42.3475 35.0001 42.3475Z" fill="white"/>
<path d="M46.7651 25.8792C48.2255 25.8792 49.4095 24.6953 49.4095 23.2348C49.4095 21.7743 48.2255 20.5903 46.7651 20.5903C45.3046 20.5903 44.1206 21.7743 44.1206 23.2348C44.1206 24.6953 45.3046 25.8792 46.7651 25.8792Z" fill="white"/>
</g>
<defs>
<clipPath id="clip0_63_5">
<rect width="70" height="70" fill="white"/>
</clipPath>
</defs>
</svg>
