<svg width="70" height="70" viewBox="0 0 70 70" fill="none" xmlns="http://www.w3.org/2000/svg">
<g clip-path="url(#clip0_63_2)">
<path d="M35 70C54.33 70 70 54.33 70 35C70 15.67 54.33 0 35 0C15.67 0 0 15.67 0 35C0 54.33 15.67 70 35 70Z" fill="#010201"/>
<path d="M52.0385 20.782C51.9036 20.3931 51.7429 20.2843 51.494 20.1909C50.9496 19.9835 50.0266 20.2946 50.0266 20.2946C50.0266 20.2946 17.3133 32.0546 15.4466 33.3561C15.0422 33.6361 14.9073 33.7969 14.8451 33.9887C14.5236 34.9169 15.5296 35.3265 15.5296 35.3265L23.9607 38.0746C23.9607 38.0746 24.277 38.1213 24.3859 38.0487C26.3044 36.8354 43.6851 25.8635 44.6859 25.4954C44.8466 25.4487 44.9607 25.5006 44.9296 25.6094C44.5303 27.0198 29.4362 40.4339 29.4362 40.4339C29.4362 40.4339 29.3792 40.5065 29.3429 40.5894L29.3222 40.5791L28.534 48.9428C28.534 48.9428 28.2022 51.5043 30.7688 48.9428C32.5785 47.1331 34.3259 45.6243 35.2022 44.888C38.1007 46.8894 41.2222 49.1035 42.5651 50.2598C43.2392 50.8406 43.8096 50.9339 44.2711 50.9183C45.5466 50.8717 45.9044 49.4665 45.9044 49.4665C45.9044 49.4665 51.8673 25.4746 52.0644 22.2598C52.0851 21.9435 52.1111 21.7465 52.1111 21.5287C52.1111 21.228 52.0851 20.9272 52.0385 20.782V20.782Z" fill="white"/>
</g>
<defs>
<clipPath id="clip0_63_2">
<rect width="70" height="70" fill="white"/>
</clipPath>
</defs>
</svg>
