<svg width="70" height="70" viewBox="0 0 70 70" fill="none" xmlns="http://www.w3.org/2000/svg">
<g clip-path="url(#clip0_63_11)">
<path d="M35 70C54.33 70 70 54.33 70 35C70 15.67 54.33 0 35 0C15.67 0 0 15.67 0 35C0 54.33 15.67 70 35 70Z" fill="#010201"/>
<path d="M57.6126 24.0384C57.4 28.6325 54.1956 34.9169 47.9889 42.9021C41.5748 51.2399 36.146 55.4088 31.7074 55.4088C28.9541 55.4088 26.6311 52.8732 24.7282 47.7917C23.4578 43.1354 22.1926 38.4843 20.9223 33.828C19.5119 28.7517 17.9978 26.211 16.3749 26.211C16.0223 26.211 14.7882 26.9525 12.6726 28.4354L10.4534 25.5784C12.7815 23.5302 15.0786 21.4873 17.3393 19.4391C20.4452 16.7584 22.7786 15.3428 24.3341 15.2028C28.0052 14.8502 30.266 17.3599 31.1111 22.7317C32.0289 28.5288 32.6615 32.1325 33.0193 33.5428C34.0771 38.3547 35.2437 40.7554 36.5141 40.7554C37.4993 40.7554 38.9874 39.1947 40.963 36.0732C42.9386 32.9569 43.9963 30.5821 44.1415 28.9488C44.4215 26.2576 43.3637 24.9095 40.963 24.9095C39.8326 24.9095 38.666 25.1688 37.4682 25.6821C39.786 18.0858 44.2193 14.3991 50.7578 14.6117C55.606 14.7517 57.8926 17.8991 57.6126 24.0436V24.0384Z" fill="white"/>
</g>
<defs>
<clipPath id="clip0_63_11">
<rect width="70" height="70" fill="white"/>
</clipPath>
</defs>
</svg>
